<svg height="512" viewBox="0 0 512 512" width="512" xmlns="http://www.w3.org/2000/svg"><g id="Outline"><path d="m492.692 233.521-16-11.588-9.384 12.959 6.832 4.948-18.14 12.51v-228.35h-16v239.383l-16 11.034v-250.417h-16v261.45l-16 11.034v-272.484a8 8 0 0 0 -11.578-7.155l-28.422 14.211-28.422-14.211a8 8 0 0 0 -7.156 0l-28.422 14.211-28.422-14.211a8 8 0 0 0 -7.156 0l-28.422 14.211-28.422-14.211a8 8 0 0 0 -7.156 0l-28.422 14.211-28.422-14.211a8 8 0 0 0 -7.156 0l-28.422 14.211-28.422-14.211a8 8 0 0 0 -11.578 7.155v228.349l-18.14-12.509 6.832-4.948-9.384-12.959-16 11.588a8 8 0 0 0 -3.308 6.479v248a8 8 0 0 0 8 8h464a8 8 0 0 0 8-8v-248a8 8 0 0 0 -3.308-6.479zm-320.967 118.069 79.733 55a8 8 0 0 0 9.084 0l79.733-54.995 128.411 128.405h-425.372zm-139.725 117.096v-213.451l126.333 87.118zm321.667-126.332 126.333-87.119v213.451zm-281.667-305.41 20.422 10.211a8 8 0 0 0 7.156 0l28.422-14.211 28.422 14.211a8 8 0 0 0 7.156 0l28.422-14.211 28.422 14.211a8 8 0 0 0 7.156 0l28.422-14.211 28.422 14.211a8 8 0 0 0 7.156 0l28.422-14.211 28.422 14.211a8 8 0 0 0 7.156 0l20.422-10.211v270.574l-39.323 27.117-80.677 55.646-80.678-55.647-56.022-38.634h40.7v-16h-63.9l-24.1-16.617z"/><path d="m352 160h-56a8 8 0 0 0 -8 8v56a8 8 0 0 0 8 8h56a8 8 0 0 0 8-8v-56a8 8 0 0 0 -8-8zm-8 56h-40v-40h40z"/><path d="m288 248h64v16h-64z"/><path d="m288 280h64v16h-64z"/><path d="m288 312h40v16h-40z"/><path d="m256 160h-64a8 8 0 0 0 -8 8v56a8 8 0 0 0 8 8h64a8 8 0 0 0 8-8v-56a8 8 0 0 0 -8-8zm-8 56h-48v-40h48z"/><path d="m184 248h80v16h-80z"/><path d="m184 280h80v16h-80z"/><path d="m184 312h80v16h-80z"/><path d="m232 344h32v16h-32z"/><path d="m96 232h56a8 8 0 0 0 8-8v-56a8 8 0 0 0 -8-8h-56a8 8 0 0 0 -8 8v56a8 8 0 0 0 8 8zm8-56h40v40h-40z"/><path d="m88 248h72v16h-72z"/><path d="m88 64h272v16h-272z"/><path d="m88 128h272v16h-272z"/><path d="m88 96h56v16h-56z"/><path d="m160 96h56v16h-56z"/><path d="m232 96h56v16h-56z"/><path d="m304 96h56v16h-56z"/><path d="m16 80h24v16h-24z"/><path d="m24 36.686h16v22.627h-16z" transform="matrix(.707 -.707 .707 .707 -24.569 36.686)"/><path d="m20.686 120h22.627v16h-22.627z" transform="matrix(.707 -.707 .707 .707 -81.134 60.113)"/></g></svg>