<?xml version="1.0" encoding="utf-8"?>
<!-- Generator: Adobe Illustrator 20.1.0, SVG Export Plug-In . SVG Version: 6.00 Build 0)  -->
<svg version="1.1" id="Layer_1" xmlns="http://www.w3.org/2000/svg" xmlns:xlink="http://www.w3.org/1999/xlink" x="0px" y="0px"
	 width="100px" height="100px" viewBox="0 0 100 100" style="enable-background:new 0 0 100 100;" xml:space="preserve">
<style type="text/css">
	.st0{fill:#777777;}
</style>
<g>
	<g>
		<path class="st0" d="M77.9,17.3H22.1c-2.7,0-4.8,2.1-4.8,4.7v56c0,2.6,2.2,4.7,4.8,4.7h55.7c2.7,0,4.8-2.1,4.8-4.7V22
			C82.7,19.4,80.5,17.3,77.9,17.3z M36.7,73H27V41.8h9.7V73z M31.9,37.6c-3.1,0-5.6-2.5-5.6-5.6c0-3.1,2.5-5.6,5.6-5.6
			c3.1,0,5.6,2.5,5.6,5.6C37.5,35,35,37.6,31.9,37.6z M73,73h-9.7V57.9c0-3.6-0.1-8.3-5-8.3c-5,0-5.8,3.9-5.8,8V73h-9.7V41.8h9.3
			v4.3h0.1c1.3-2.5,4.5-5,9.2-5C71.2,41,73,47.5,73,55.9V73z"/>
	</g>
</g>
</svg>
