<?xml version="1.0" encoding="utf-8"?>
<!-- Generator: Adobe Illustrator 20.1.0, SVG Export Plug-In . SVG Version: 6.00 Build 0)  -->
<svg version="1.1" id="Layer_1" xmlns="http://www.w3.org/2000/svg" xmlns:xlink="http://www.w3.org/1999/xlink" x="0px" y="0px"
	 width="100px" height="100px" viewBox="0 0 100 100" style="enable-background:new 0 0 100 100;" xml:space="preserve">
<style type="text/css">
	.st0{fill:#777777;}
</style>
<path class="st0" d="M90.2,25c-3,1.3-6.1,2.2-9.5,2.6c3.4-2,6-5.3,7.3-9.1c-3.2,1.9-6.8,3.3-10.5,4c-3-3.2-7.3-5.2-12-5.2
	c-10.7,0-18.5,9.9-16.1,20.3c-13.7-0.7-25.9-7.3-34-17.2c-4.3,7.4-2.2,17.1,5.1,22c-2.6-0.1-5.2-0.8-7.5-2.1
	c-0.2,7.6,5.3,14.8,13.2,16.4c-2.4,0.7-5,0.8-7.5,0.3c2.1,6.6,8.2,11.3,15.4,11.5c-6.9,5.4-15.7,7.9-24.4,6.8
	c7.3,4.7,16,7.4,25.3,7.4c30.7,0,48-25.9,46.9-49.1C85.2,31.3,88,28.4,90.2,25L90.2,25z"/>
</svg>
