<?xml version="1.0" encoding="utf-8"?>
<!-- Generator: Adobe Illustrator 20.1.0, SVG Export Plug-In . SVG Version: 6.00 Build 0)  -->
<svg version="1.1" id="Layer_1" xmlns="http://www.w3.org/2000/svg" xmlns:xlink="http://www.w3.org/1999/xlink" x="0px" y="0px"
	 width="20.1px" height="15px" viewBox="0 0 20.1 15" style="enable-background:new 0 0 20.1 15;" xml:space="preserve">
<style type="text/css">
	.st0{fill:#777777;}
</style>
<g id="Home">
	<path id="ion-social-youtube---Ionicons" class="st0" d="M18.8,3.8c0.1,1.2,0.1,2.5,0.1,3.7s0,2.5-0.1,3.7c0,0.8-0.3,1.4-0.7,1.9
		c-0.4,0.5-1.1,0.8-1.9,0.8c-1.8,0.1-3.8,0.2-6.2,0.2S5.6,14,3.9,13.9c-0.7,0-1.3-0.3-1.9-0.8c-0.5-0.5-0.7-1.2-0.7-1.9
		C1.2,10,1.2,8.7,1.2,7.5c0-0.8,0.1-2,0.2-3.7c0-0.8,0.3-1.4,0.7-1.9s1.1-0.8,1.8-0.8C5.5,1,7.5,0.9,9.7,0.9h0.6
		c2.2,0,4.1,0.1,5.8,0.2c0.7,0,1.3,0.3,1.9,0.8C18.5,2.4,18.8,3,18.8,3.8z M8.4,10.9l5-3.4l-5-3.4V10.9z"/>
</g>
</svg>
